HIERARCHY
ROOT Hips
{
	OFFSET 0.000000 0.000000 0.000000
	CHANNELS 6 Xposition Yposition Zposition Xrotation Yrotation Zrotation
	JOINT LeftUpLeg_virtual
	{
		OFFSET 0.000000 0.000000 0.000000
		CHANNELS 3 Xrotation Yrotation Zrotation
		JOINT LeftUpLeg
		{
			OFFSET 10.205400 -3.823500 0.155100
			CHANNELS 3 Xrotation Yrotation Zrotation
			JOINT LeftLeg
			{
				OFFSET 0.708757 -12.982077 0.567790
				CHANNELS 3 Xrotation Yrotation Zrotation
				JOINT LeftFoot
				{
					OFFSET -0.708756 -10.717838 -2.184338
					CHANNELS 3 Xrotation Yrotation Zrotation
					JOINT LeftToeBase
					{
						OFFSET 0.108149 -7.191104 7.560241
						CHANNELS 3 Xrotation Yrotation Zrotation
						JOINT LeftToe_End
						{
							OFFSET 0.070230 0.081724 4.490308
							CHANNELS 3 Xrotation Yrotation Zrotation
							End Site
							{
								OFFSET 0 0 0
							}
						}
					}
				}
			}
		}
	}
	JOINT RightUpLeg_virtual
	{
		OFFSET 0.000000 0.000000 0.000000
		CHANNELS 3 Xrotation Yrotation Zrotation
		JOINT RightUpLeg
		{
			OFFSET -10.205400 -3.823500 0.005500
			CHANNELS 3 Xrotation Yrotation Zrotation
			JOINT RightLeg
			{
				OFFSET -0.708756 -12.982134 0.610632
				CHANNELS 3 Xrotation Yrotation Zrotation
				JOINT RightFoot
				{
					OFFSET 0.708754 -10.717769 -1.945823
					CHANNELS 3 Xrotation Yrotation Zrotation
					JOINT RightToeBase
					{
						OFFSET -0.108140 -7.191069 7.372968
						CHANNELS 3 Xrotation Yrotation Zrotation
						JOINT RightToe_End
						{
							OFFSET -0.070227 0.081735 4.479403
							CHANNELS 3 Xrotation Yrotation Zrotation
							End Site
							{
								OFFSET 0 0 0
							}
						}
					}
				}
			}
		}
	}
	JOINT Spine_virtual
	{
		OFFSET 0.000000 0.000000 0.000000
		CHANNELS 3 Xrotation Yrotation Zrotation
		JOINT Spine
		{
			OFFSET 0.000000 6.876099 0.125700
			CHANNELS 3 Xrotation Yrotation Zrotation
			JOINT Spine1
			{
				OFFSET 0.000000 5.730043 0.104720
				CHANNELS 3 Xrotation Yrotation Zrotation
				JOINT Spine1_split
				{
					OFFSET 0.000000 5.730043 0.104720
					CHANNELS 3 Xrotation Yrotation Zrotation
					JOINT Spine2
					{
						OFFSET 0.000000 5.730043 0.104720
						CHANNELS 3 Xrotation Yrotation Zrotation
						JOINT Neck_virtual
						{
							OFFSET 0.000000 0.000000 0.000000
							CHANNELS 3 Xrotation Yrotation Zrotation
							JOINT Neck
							{
								OFFSET 0.000000 10.314075 0.188496
								CHANNELS 3 Xrotation Yrotation Zrotation
								JOINT Head
								{
									OFFSET 0.000000 7.643700 -2.377400
									CHANNELS 3 Xrotation Yrotation Zrotation
									JOINT HeadTop_End
									{
										OFFSET 0.000000 43.788605 -13.619600
										CHANNELS 3 Xrotation Yrotation Zrotation
										End Site
										{
											OFFSET 0 0 0
										}
									}
								}
							}
						}
						JOINT LeftShoulder_virtual
						{
							OFFSET 0.000000 0.000000 0.000000
							CHANNELS 3 Xrotation Yrotation Zrotation
							JOINT LeftShoulder
							{
								OFFSET 2.196100 4.412489 0.087492
								CHANNELS 3 Xrotation Yrotation Zrotation
								JOINT LeftShoulder_split
								{
									OFFSET 2.196100 4.412489 0.087492
									CHANNELS 3 Xrotation Yrotation Zrotation
									JOINT LeftArm
									{
										OFFSET 8.771219 -2.981674 -0.026999
										CHANNELS 3 Xrotation Yrotation Zrotation
										JOINT LeftForeArm
										{
											OFFSET 8.512804 0.000000 -0.000000
											CHANNELS 3 Xrotation Yrotation Zrotation
											JOINT LeftHand
											{
												OFFSET 18.484802 0.000000 -0.000000
												CHANNELS 3 Xrotation Yrotation Zrotation
												End Site
												{
													OFFSET 0 0 0
												}
											}
										}
									}
								}
							}
						}
						JOINT RightShoulder_virtual
						{
							OFFSET 0.000000 0.000000 0.000000
							CHANNELS 3 Xrotation Yrotation Zrotation
							JOINT RightShoulder
							{
								OFFSET -2.196100 4.412496 0.070690
								CHANNELS 3 Xrotation Yrotation Zrotation
								JOINT RightShoulder_split
								{
									OFFSET -2.196100 4.412496 0.070690
									CHANNELS 3 Xrotation Yrotation Zrotation
									JOINT RightArm
									{
										OFFSET -8.771282 -2.981682 -0.094208
										CHANNELS 3 Xrotation Yrotation Zrotation
										JOINT RightForeArm
										{
											OFFSET -8.494598 0.000000 0.000000
											CHANNELS 3 Xrotation Yrotation Zrotation
											JOINT RightHand
											{
												OFFSET -18.483803 0.000000 0.000001
												CHANNELS 3 Xrotation Yrotation Zrotation
												End Site
												{
													OFFSET 0 0 0
												}
											}
										}
									}
								}
							}
						}
					}
				}
			}
		}
	}
}
MOTION
Frames: 7
Frame Time: 0.03333333
-4.173173 27.978605 3.634348 0.000000 0.000000 0.000000 14.633521 -45.505083 18.112653 -51.900125 31.677287 32.761593 44.411034 -27.276265 1.311172 -11.390831 -0.013988 -10.516067 -4.645428 -7.250855 1.355725 0.000000 0.000000 0.000000 12.066016 -41.163744 17.436382 -9.952387 -7.432311 -41.298349 42.265139 2.547483 -7.714682 -52.705049 -13.037810 27.565916 7.309481 7.614998 2.661552 0.000000 0.000000 0.000000 13.764052 -41.993874 17.835678 13.506009 -6.235494 -0.655634 26.287865 -1.835542 -1.493078 -0.143033 -3.070768 1.855753 0.000000 0.000000 0.000000 13.232367 -1.731017 -2.212760 2.278309 3.150353 12.888386 15.090374 0.546432 -6.064896 0.000000 0.000000 0.000000 15.469825 -2.649153 -2.957482 3.238309 -28.769563 1.485058 -1.099395 -3.883742 -0.067922 -32.748083 -14.585008 -32.056513 -5.388308 -16.011051 1.165454 0.000000 0.000000 0.000000 14.283337 -1.157064 -1.946019 2.484876 13.478665 18.350714 10.286145 1.709592 3.255468 -10.774785 -9.638617 13.460887 -78.164466 83.234912 75.707558 0.000000 0.000000 0.000000 
-3.771334 28.049915 3.544283 0.000000 0.000000 0.000000 10.580037 -44.025289 14.340534 -52.559405 31.243580 33.046672 45.864252 -28.066069 1.486867 -9.249596 -1.744976 -9.408460 -4.059213 -7.037702 0.874577 0.000000 0.000000 0.000000 8.107348 -39.636616 13.858508 -6.185838 -8.396098 -40.577092 41.140760 2.447581 -7.660486 -50.822457 -13.694069 28.613664 7.337600 7.213927 2.971443 0.000000 0.000000 0.000000 10.194537 -41.857554 14.867348 13.385111 -5.916054 -0.321150 24.889117 -0.982216 -1.624587 0.371964 -3.138925 2.224507 0.000000 0.000000 0.000000 12.429270 -0.762454 -2.354522 1.350558 4.025428 11.251941 13.588093 1.594640 -7.985856 0.000000 0.000000 0.000000 14.423018 -1.792898 -3.066621 3.114353 -29.218542 1.595026 -0.567468 -3.144077 -0.462069 -30.811250 -10.842246 -30.096733 -6.503078 -17.185321 0.151273 0.000000 0.000000 0.000000 13.386051 -0.357025 -2.108122 2.144431 13.384502 19.175181 9.588023 1.521608 4.014253 -10.534625 -12.225012 11.226733 -84.309902 86.233604 82.138878 0.000000 0.000000 0.000000 
-3.432626 28.068159 3.392914 0.000000 0.000000 0.000000 6.800199 -42.531322 10.890310 -53.689556 30.777293 33.862705 47.184791 -28.616498 1.604281 -6.810068 -3.375922 -8.512569 -3.417279 -6.856194 0.325865 0.000000 0.000000 0.000000 4.593617 -38.254298 10.688930 -3.185611 -9.277605 -39.631927 40.718002 2.394762 -7.663155 -49.020483 -14.209866 29.759732 6.867566 6.869722 3.273443 0.000000 0.000000 0.000000 6.716151 -41.404726 11.990241 13.122322 -5.444089 0.321979 23.572757 -0.229171 -1.673145 0.895950 -3.290426 2.333461 0.000000 0.000000 0.000000 11.596022 0.122523 -2.332757 -0.729857 4.910941 8.885274 11.841062 2.938604 -9.833931 0.000000 0.000000 0.000000 13.451940 -0.958770 -2.995497 2.929489 -29.459552 1.673094 0.253661 -2.408595 -0.769668 -29.947740 -7.321234 -28.894764 -7.835980 -19.015257 -1.159133 0.000000 0.000000 0.000000 12.463954 0.353353 -2.119779 1.851826 12.981703 19.521987 8.989735 1.700217 4.467698 -10.051714 -15.086252 10.570084 -90.251292 88.621431 88.578695 0.000000 0.000000 0.000000 
-3.169973 28.038519 3.271544 0.000000 0.000000 0.000000 3.458741 -41.641952 7.865334 -54.965681 30.301458 35.072113 48.319084 -28.844302 1.709201 -4.567973 -4.776147 -7.849778 -3.217047 -6.754700 -0.088673 0.000000 0.000000 0.000000 1.789095 -37.446362 7.998067 -1.139215 -9.893864 -38.508227 40.787947 2.550803 -7.737808 -47.315118 -14.423176 31.015264 5.765361 6.641191 3.413095 0.000000 0.000000 0.000000 3.828879 -40.929506 9.389360 12.906667 -4.896638 1.163468 22.204194 0.364997 -1.692638 1.295437 -3.152071 2.179413 0.000000 0.000000 0.000000 10.578536 0.856538 -2.233922 -3.626059 5.748961 6.709887 10.082587 4.544287 -11.378622 0.000000 0.000000 0.000000 12.391147 -0.196580 -2.809009 2.753256 -29.573032 1.749100 1.408224 -1.947315 -0.727974 -29.641938 -4.480391 -28.524448 -9.240903 -21.580311 -2.657176 0.000000 0.000000 0.000000 11.377262 0.942183 -2.029638 1.648321 12.289625 19.144535 8.468212 2.225743 4.365127 -9.508317 -17.334648 11.844725 13.380698 89.382615 -14.458602 0.000000 0.000000 0.000000 
-2.955257 27.998398 3.136089 0.000000 0.000000 0.000000 0.827390 -41.674505 5.342034 -56.058402 29.701194 36.322024 49.480004 -28.629458 1.930233 -3.263478 -5.663269 -7.149157 -3.118710 -6.746420 -0.258460 0.000000 0.000000 0.000000 -0.359171 -37.549180 5.731433 -0.116926 -10.213670 -37.274743 41.083188 2.932585 -7.845280 -45.647995 -14.259085 32.292981 4.276488 6.589319 3.379050 0.000000 0.000000 0.000000 1.832944 -40.732721 7.205225 12.892023 -4.235586 2.076972 20.689415 0.852887 -1.772407 1.663551 -2.816980 1.537640 0.000000 0.000000 0.000000 9.252310 1.481780 -2.189093 -6.669831 6.498837 5.311010 8.602634 6.301765 -12.473449 0.000000 0.000000 0.000000 11.124400 0.502388 -2.666165 2.607860 -29.511997 2.040998 2.478917 -1.587030 -0.826919 -29.100448 -2.483436 -28.879003 -10.619722 -24.683510 -4.230226 0.000000 0.000000 0.000000 10.019479 1.482154 -1.977979 1.480179 11.177781 17.832987 7.861415 2.850081 3.889025 -8.813109 -18.358635 14.611252 16.201695 87.578284 -16.758899 0.000000 0.000000 0.000000 
-2.747756 27.950312 3.006037 0.000000 0.000000 0.000000 -1.035318 -42.591830 3.264457 -56.735786 28.888927 37.420168 50.506056 -27.896227 2.164354 -3.291099 -5.822714 -6.394951 -2.425433 -6.794799 -0.266479 0.000000 0.000000 0.000000 -1.850228 -38.736779 3.858072 -0.108135 -10.096373 -35.980856 41.382624 3.449279 -7.991234 -44.075843 -13.734434 33.268222 2.956149 6.682816 3.262311 0.000000 0.000000 0.000000 0.704641 -41.073302 5.421382 13.076080 -3.425629 2.860593 18.931039 1.329856 -1.992958 1.307752 -2.608159 1.071833 0.000000 0.000000 0.000000 7.662997 2.107116 -2.331011 -9.216663 7.229159 4.774200 7.315432 8.073586 -13.044809 0.000000 0.000000 0.000000 9.605351 1.189444 -2.671506 2.518875 -29.193991 2.568976 3.356438 -1.409609 -1.183999 -28.148108 -1.368153 -29.622220 -11.848442 -27.588956 -5.734967 0.000000 0.000000 0.000000 8.380794 2.035238 -2.063345 1.272208 9.931130 15.763132 7.295283 2.982989 3.360135 -8.105521 -18.299661 18.496280 4.378923 84.922979 -4.574000 0.000000 0.000000 0.000000 
-2.490916 27.929003 2.844553 0.000000 0.000000 0.000000 -1.997426 -44.240211 1.682178 -57.000428 27.806388 38.246973 51.129474 -26.620478 2.282637 -4.386922 -5.177668 -5.764384 -1.145218 -6.849701 -0.155985 0.000000 0.000000 0.000000 -2.793895 -40.844934 2.307818 -1.054896 -9.606352 -34.695479 41.725994 3.953335 -8.099906 -42.577630 -12.934100 33.663096 2.106794 6.859870 3.179782 0.000000 0.000000 0.000000 0.365216 -42.004629 4.141473 13.362730 -2.505340 3.386870 16.953829 1.902175 -2.353165 0.858688 -2.295503 0.868263 0.000000 0.000000 0.000000 5.914930 2.805211 -2.640844 -10.643158 8.065063 4.846164 6.283882 9.758827 -13.112857 0.000000 0.000000 0.000000 7.881338 1.924374 -2.850962 2.454352 -28.564177 3.251011 3.957350 -1.098462 -1.780980 -26.554869 -0.835744 -30.390008 -12.946264 -29.980053 -7.069388 0.000000 0.000000 0.000000 6.538792 2.703737 -2.315089 0.885793 8.913013 13.241181 6.779985 2.547716 3.174835 -7.501059 -17.907883 23.249564 -3.156949 81.207097 3.106746 0.000000 0.000000 0.000000 
